<!DOCTYPE svg PUBLIC "-//W3C//DTD SVG 1.1//EN" "http://www.w3.org/Graphics/SVG/1.1/DTD/svg11.dtd">
<!-- Uploaded to: SVG Repo, www.svgrepo.com, Transformed by: SVG Repo Mixer Tools -->
<svg fill="#000000" version="1.1" id="Layer_1" xmlns="http://www.w3.org/2000/svg" xmlns:xlink="http://www.w3.org/1999/xlink" width="256px" height="256px" viewBox="0 0 512.00 512.00" enable-background="new 0 0 512 512" xml:space="preserve" stroke="#000000" stroke-width="0.00512">
<g id="SVGRepo_bgCarrier" stroke-width="0"/>
<g id="SVGRepo_tracerCarrier" stroke-linecap="round" stroke-linejoin="round"/>
<g id="SVGRepo_iconCarrier"> <path d="M256,0C114.609,0,0,114.609,0,256s114.609,256,256,256s256-114.609,256-256S397.391,0,256,0z M256,472 c-119.297,0-216-96.703-216-216S136.703,40,256,40s216,96.703,216,216S375.297,472,256,472z"/> <path d="M230.839,128c0,0,95.484,64,84.266,152c0,0,32.047-8,23.438-60.938c0,0,46.234,44.609,45.453,84.938 c-0.641,32.766-41.641,80-118.75,80c0,0,69.531-62.188-22.344-140.875c0,0-84.984,83.844-28.906,140.875 c0,0-113.078-28.766-79.906-100.797C167.261,211.156,239.823,204.797,230.839,128z"/> </g>
</svg>